<mxfile host="app.diagrams.net" modified="2023-09-19T13:55:53.309Z" agent="Mozilla/5.0 (Windows NT 10.0; Win64; x64; rv:109.0) Gecko/20100101 Firefox/117.0" etag="ir-lpOYMrBR_X-a63Jbo" version="21.7.5" type="device">
  <diagram id="C5RBs43oDa-KdzZeNtuy" name="Page-1">
    <mxGraphModel dx="1434" dy="774" grid="1" gridSize="10" guides="1" tooltips="1" connect="1" arrows="1" fold="1" page="1" pageScale="1" pageWidth="827" pageHeight="1169" math="0" shadow="0">
      <root>
        <mxCell id="WIyWlLk6GJQsqaUBKTNV-0" />
        <mxCell id="WIyWlLk6GJQsqaUBKTNV-1" parent="WIyWlLk6GJQsqaUBKTNV-0" />
        <mxCell id="2VStCSKUZjfk6ihANfYz-0" value="SeaportTool" style="swimlane;fontStyle=1;align=center;verticalAlign=top;childLayout=stackLayout;horizontal=1;startSize=26;horizontalStack=0;resizeParent=1;resizeParentMax=0;resizeLast=0;collapsible=1;marginBottom=0;whiteSpace=wrap;html=1;" vertex="1" parent="WIyWlLk6GJQsqaUBKTNV-1">
          <mxGeometry x="360" y="640" width="160" height="86" as="geometry" />
        </mxCell>
        <mxCell id="2VStCSKUZjfk6ihANfYz-1" value="+ field: type" style="text;strokeColor=none;fillColor=none;align=left;verticalAlign=top;spacingLeft=4;spacingRight=4;overflow=hidden;rotatable=0;points=[[0,0.5],[1,0.5]];portConstraint=eastwest;whiteSpace=wrap;html=1;" vertex="1" parent="2VStCSKUZjfk6ihANfYz-0">
          <mxGeometry y="26" width="160" height="26" as="geometry" />
        </mxCell>
        <mxCell id="2VStCSKUZjfk6ihANfYz-2" value="" style="line;strokeWidth=1;fillColor=none;align=left;verticalAlign=middle;spacingTop=-1;spacingLeft=3;spacingRight=3;rotatable=0;labelPosition=right;points=[];portConstraint=eastwest;strokeColor=inherit;" vertex="1" parent="2VStCSKUZjfk6ihANfYz-0">
          <mxGeometry y="52" width="160" height="8" as="geometry" />
        </mxCell>
        <mxCell id="2VStCSKUZjfk6ihANfYz-3" value="+ main(): void" style="text;strokeColor=none;fillColor=none;align=left;verticalAlign=top;spacingLeft=4;spacingRight=4;overflow=hidden;rotatable=0;points=[[0,0.5],[1,0.5]];portConstraint=eastwest;whiteSpace=wrap;html=1;" vertex="1" parent="2VStCSKUZjfk6ihANfYz-0">
          <mxGeometry y="60" width="160" height="26" as="geometry" />
        </mxCell>
        <mxCell id="2VStCSKUZjfk6ihANfYz-5" value="&lt;div&gt;&amp;lt;&amp;lt;interface&amp;gt;&amp;gt;&lt;/div&gt;&lt;div&gt;QuestSolver&lt;br&gt;&lt;/div&gt;" style="swimlane;fontStyle=1;align=center;verticalAlign=top;childLayout=stackLayout;horizontal=1;startSize=50;horizontalStack=0;resizeParent=1;resizeParentMax=0;resizeLast=0;collapsible=1;marginBottom=0;whiteSpace=wrap;html=1;" vertex="1" parent="WIyWlLk6GJQsqaUBKTNV-1">
          <mxGeometry x="590" y="640" width="220" height="90" as="geometry" />
        </mxCell>
        <mxCell id="2VStCSKUZjfk6ihANfYz-7" value="" style="line;strokeWidth=1;fillColor=none;align=left;verticalAlign=middle;spacingTop=-1;spacingLeft=3;spacingRight=3;rotatable=0;labelPosition=right;points=[];portConstraint=eastwest;strokeColor=inherit;" vertex="1" parent="2VStCSKUZjfk6ihANfYz-5">
          <mxGeometry y="50" width="220" height="8" as="geometry" />
        </mxCell>
        <mxCell id="2VStCSKUZjfk6ihANfYz-8" value="+ solve(Quest): List&amp;lt;Solution&amp;gt;" style="text;strokeColor=none;fillColor=none;align=left;verticalAlign=top;spacingLeft=4;spacingRight=4;overflow=hidden;rotatable=0;points=[[0,0.5],[1,0.5]];portConstraint=eastwest;whiteSpace=wrap;html=1;" vertex="1" parent="2VStCSKUZjfk6ihANfYz-5">
          <mxGeometry y="58" width="220" height="32" as="geometry" />
        </mxCell>
        <mxCell id="2VStCSKUZjfk6ihANfYz-9" value="Quest" style="swimlane;fontStyle=1;align=center;verticalAlign=top;childLayout=stackLayout;horizontal=1;startSize=26;horizontalStack=0;resizeParent=1;resizeParentMax=0;resizeLast=0;collapsible=1;marginBottom=0;whiteSpace=wrap;html=1;" vertex="1" parent="WIyWlLk6GJQsqaUBKTNV-1">
          <mxGeometry x="40" y="40" width="240" height="160" as="geometry" />
        </mxCell>
        <mxCell id="2VStCSKUZjfk6ihANfYz-10" value="- ressources: Map&amp;lt;String, Integer&amp;gt;" style="text;strokeColor=none;fillColor=none;align=left;verticalAlign=top;spacingLeft=4;spacingRight=4;overflow=hidden;rotatable=0;points=[[0,0.5],[1,0.5]];portConstraint=eastwest;whiteSpace=wrap;html=1;" vertex="1" parent="2VStCSKUZjfk6ihANfYz-9">
          <mxGeometry y="26" width="240" height="26" as="geometry" />
        </mxCell>
        <mxCell id="2VStCSKUZjfk6ihANfYz-11" value="" style="line;strokeWidth=1;fillColor=none;align=left;verticalAlign=middle;spacingTop=-1;spacingLeft=3;spacingRight=3;rotatable=0;labelPosition=right;points=[];portConstraint=eastwest;strokeColor=inherit;" vertex="1" parent="2VStCSKUZjfk6ihANfYz-9">
          <mxGeometry y="52" width="240" height="8" as="geometry" />
        </mxCell>
        <mxCell id="2VStCSKUZjfk6ihANfYz-12" value="&lt;div&gt;+ Quest()&lt;br&gt;&lt;/div&gt;&lt;div&gt;+ addRessource(String, int):boolean&lt;/div&gt;&lt;div&gt;+ editRessource(String, int): boolean&lt;/div&gt;&lt;div&gt;+ removeRessource(String): boolean&lt;/div&gt;&lt;div&gt;+ getValue(String): int&lt;/div&gt;&lt;div&gt;+ getRessources():Set&amp;lt;String&amp;gt;&lt;br&gt;&lt;/div&gt;" style="text;strokeColor=none;fillColor=none;align=left;verticalAlign=top;spacingLeft=4;spacingRight=4;overflow=hidden;rotatable=0;points=[[0,0.5],[1,0.5]];portConstraint=eastwest;whiteSpace=wrap;html=1;" vertex="1" parent="2VStCSKUZjfk6ihANfYz-9">
          <mxGeometry y="60" width="240" height="100" as="geometry" />
        </mxCell>
        <mxCell id="2VStCSKUZjfk6ihANfYz-13" value="Solution" style="swimlane;fontStyle=1;align=center;verticalAlign=top;childLayout=stackLayout;horizontal=1;startSize=26;horizontalStack=0;resizeParent=1;resizeParentMax=0;resizeLast=0;collapsible=1;marginBottom=0;whiteSpace=wrap;html=1;" vertex="1" parent="WIyWlLk6GJQsqaUBKTNV-1">
          <mxGeometry x="640" y="40" width="160" height="170" as="geometry" />
        </mxCell>
        <mxCell id="2VStCSKUZjfk6ihANfYz-14" value="&lt;div&gt;- turns: List&amp;lt;Turn&amp;gt;&lt;/div&gt;&lt;div&gt;- freeCapacity: int&lt;br&gt;&lt;/div&gt;" style="text;strokeColor=none;fillColor=none;align=left;verticalAlign=top;spacingLeft=4;spacingRight=4;overflow=hidden;rotatable=0;points=[[0,0.5],[1,0.5]];portConstraint=eastwest;whiteSpace=wrap;html=1;" vertex="1" parent="2VStCSKUZjfk6ihANfYz-13">
          <mxGeometry y="26" width="160" height="44" as="geometry" />
        </mxCell>
        <mxCell id="2VStCSKUZjfk6ihANfYz-15" value="" style="line;strokeWidth=1;fillColor=none;align=left;verticalAlign=middle;spacingTop=-1;spacingLeft=3;spacingRight=3;rotatable=0;labelPosition=right;points=[];portConstraint=eastwest;strokeColor=inherit;" vertex="1" parent="2VStCSKUZjfk6ihANfYz-13">
          <mxGeometry y="70" width="160" height="8" as="geometry" />
        </mxCell>
        <mxCell id="2VStCSKUZjfk6ihANfYz-16" value="&lt;div&gt;+ Solution()&lt;/div&gt;&lt;div&gt;+ addTrip(Trip):int&lt;/div&gt;&lt;div&gt;+ getTurns(): List&amp;lt;Turn&amp;gt;&lt;/div&gt;&lt;div&gt;+ getTurnCount(): int&lt;/div&gt;&lt;div&gt;+ getFreeCapacity(): int&lt;br&gt;&lt;/div&gt;" style="text;strokeColor=none;fillColor=none;align=left;verticalAlign=top;spacingLeft=4;spacingRight=4;overflow=hidden;rotatable=0;points=[[0,0.5],[1,0.5]];portConstraint=eastwest;whiteSpace=wrap;html=1;" vertex="1" parent="2VStCSKUZjfk6ihANfYz-13">
          <mxGeometry y="78" width="160" height="92" as="geometry" />
        </mxCell>
        <mxCell id="2VStCSKUZjfk6ihANfYz-21" value="Ship" style="swimlane;fontStyle=1;align=center;verticalAlign=top;childLayout=stackLayout;horizontal=1;startSize=26;horizontalStack=0;resizeParent=1;resizeParentMax=0;resizeLast=0;collapsible=1;marginBottom=0;whiteSpace=wrap;html=1;" vertex="1" parent="WIyWlLk6GJQsqaUBKTNV-1">
          <mxGeometry x="40" y="240" width="160" height="180" as="geometry" />
        </mxCell>
        <mxCell id="2VStCSKUZjfk6ihANfYz-22" value="&lt;div&gt;- name: String&lt;/div&gt;&lt;div&gt;- capacity: int&lt;/div&gt;" style="text;strokeColor=none;fillColor=none;align=left;verticalAlign=top;spacingLeft=4;spacingRight=4;overflow=hidden;rotatable=0;points=[[0,0.5],[1,0.5]];portConstraint=eastwest;whiteSpace=wrap;html=1;" vertex="1" parent="2VStCSKUZjfk6ihANfYz-21">
          <mxGeometry y="26" width="160" height="54" as="geometry" />
        </mxCell>
        <mxCell id="2VStCSKUZjfk6ihANfYz-23" value="" style="line;strokeWidth=1;fillColor=none;align=left;verticalAlign=middle;spacingTop=-1;spacingLeft=3;spacingRight=3;rotatable=0;labelPosition=right;points=[];portConstraint=eastwest;strokeColor=inherit;" vertex="1" parent="2VStCSKUZjfk6ihANfYz-21">
          <mxGeometry y="80" width="160" height="8" as="geometry" />
        </mxCell>
        <mxCell id="2VStCSKUZjfk6ihANfYz-24" value="&lt;div&gt;+ Ship(String, int)&lt;/div&gt;&lt;div&gt;+ setName(String):void&lt;/div&gt;&lt;div&gt;+ setCapacity(int):void&lt;/div&gt;&lt;div&gt;+ getName():String&lt;/div&gt;&lt;div&gt;+ getCapacity():int&lt;br&gt;&lt;/div&gt;" style="text;strokeColor=none;fillColor=none;align=left;verticalAlign=top;spacingLeft=4;spacingRight=4;overflow=hidden;rotatable=0;points=[[0,0.5],[1,0.5]];portConstraint=eastwest;whiteSpace=wrap;html=1;" vertex="1" parent="2VStCSKUZjfk6ihANfYz-21">
          <mxGeometry y="88" width="160" height="92" as="geometry" />
        </mxCell>
        <mxCell id="2VStCSKUZjfk6ihANfYz-25" value="&lt;u&gt;Fleet&lt;/u&gt;" style="swimlane;fontStyle=1;align=center;verticalAlign=top;childLayout=stackLayout;horizontal=1;startSize=26;horizontalStack=0;resizeParent=1;resizeParentMax=0;resizeLast=0;collapsible=1;marginBottom=0;whiteSpace=wrap;html=1;" vertex="1" parent="WIyWlLk6GJQsqaUBKTNV-1">
          <mxGeometry x="40" y="440" width="240" height="210" as="geometry" />
        </mxCell>
        <mxCell id="2VStCSKUZjfk6ihANfYz-26" value="&lt;u&gt;- ships: Map&amp;lt;Ship, Integer&amp;gt;&lt;/u&gt;" style="text;strokeColor=none;fillColor=none;align=left;verticalAlign=top;spacingLeft=4;spacingRight=4;overflow=hidden;rotatable=0;points=[[0,0.5],[1,0.5]];portConstraint=eastwest;whiteSpace=wrap;html=1;" vertex="1" parent="2VStCSKUZjfk6ihANfYz-25">
          <mxGeometry y="26" width="240" height="26" as="geometry" />
        </mxCell>
        <mxCell id="2VStCSKUZjfk6ihANfYz-27" value="" style="line;strokeWidth=1;fillColor=none;align=left;verticalAlign=middle;spacingTop=-1;spacingLeft=3;spacingRight=3;rotatable=0;labelPosition=right;points=[];portConstraint=eastwest;strokeColor=inherit;" vertex="1" parent="2VStCSKUZjfk6ihANfYz-25">
          <mxGeometry y="52" width="240" height="8" as="geometry" />
        </mxCell>
        <mxCell id="2VStCSKUZjfk6ihANfYz-28" value="&lt;div&gt;&lt;u&gt;+ addShip(String, int): boolean&lt;br&gt;&lt;/u&gt;&lt;/div&gt;&lt;div&gt;&lt;u&gt;+ addShip(String, int, int): boolean&lt;/u&gt;&lt;/div&gt;&lt;div&gt;&lt;u&gt;+ removeShip(String): boolean&lt;br&gt;&lt;/u&gt;&lt;/div&gt;&lt;div&gt;&lt;u&gt;+ removeShip(String, int): boolean&lt;/u&gt;&lt;/div&gt;&lt;div&gt;&lt;u&gt;+ getShips(): Set&amp;lt;Ship&amp;gt;&lt;/u&gt;&lt;/div&gt;&lt;div&gt;&lt;u&gt;+ getShipAmount(Ship): int&lt;br&gt;&lt;/u&gt;&lt;/div&gt;&lt;div&gt;&lt;u&gt;+ save(String): boolean&lt;/u&gt;&lt;/div&gt;&lt;div&gt;&lt;u&gt;+ load(String): boolean&lt;br&gt;&lt;/u&gt;&lt;/div&gt;" style="text;strokeColor=none;fillColor=none;align=left;verticalAlign=top;spacingLeft=4;spacingRight=4;overflow=hidden;rotatable=0;points=[[0,0.5],[1,0.5]];portConstraint=eastwest;whiteSpace=wrap;html=1;" vertex="1" parent="2VStCSKUZjfk6ihANfYz-25">
          <mxGeometry y="60" width="240" height="150" as="geometry" />
        </mxCell>
        <mxCell id="2VStCSKUZjfk6ihANfYz-29" value="Trip" style="swimlane;fontStyle=1;align=center;verticalAlign=top;childLayout=stackLayout;horizontal=1;startSize=26;horizontalStack=0;resizeParent=1;resizeParentMax=0;resizeLast=0;collapsible=1;marginBottom=0;whiteSpace=wrap;html=1;" vertex="1" parent="WIyWlLk6GJQsqaUBKTNV-1">
          <mxGeometry x="640" y="400" width="160" height="160" as="geometry" />
        </mxCell>
        <mxCell id="2VStCSKUZjfk6ihANfYz-30" value="&lt;div&gt;- ship: Ship&lt;br&gt;&lt;/div&gt;&lt;div&gt;- ressource: String&lt;br&gt;&lt;/div&gt;&lt;div&gt;- amount: int&lt;br&gt;&lt;/div&gt;" style="text;strokeColor=none;fillColor=none;align=left;verticalAlign=top;spacingLeft=4;spacingRight=4;overflow=hidden;rotatable=0;points=[[0,0.5],[1,0.5]];portConstraint=eastwest;whiteSpace=wrap;html=1;" vertex="1" parent="2VStCSKUZjfk6ihANfYz-29">
          <mxGeometry y="26" width="160" height="54" as="geometry" />
        </mxCell>
        <mxCell id="2VStCSKUZjfk6ihANfYz-31" value="" style="line;strokeWidth=1;fillColor=none;align=left;verticalAlign=middle;spacingTop=-1;spacingLeft=3;spacingRight=3;rotatable=0;labelPosition=right;points=[];portConstraint=eastwest;strokeColor=inherit;" vertex="1" parent="2VStCSKUZjfk6ihANfYz-29">
          <mxGeometry y="80" width="160" height="8" as="geometry" />
        </mxCell>
        <mxCell id="2VStCSKUZjfk6ihANfYz-32" value="&lt;div&gt;+ Trip(Ship, String, int)&lt;/div&gt;&lt;div&gt;+ getShip(): Ship&lt;/div&gt;&lt;div&gt;+ getRessource(): String&lt;/div&gt;&lt;div&gt;+ getAmount(): int&lt;/div&gt;" style="text;strokeColor=none;fillColor=none;align=left;verticalAlign=top;spacingLeft=4;spacingRight=4;overflow=hidden;rotatable=0;points=[[0,0.5],[1,0.5]];portConstraint=eastwest;whiteSpace=wrap;html=1;" vertex="1" parent="2VStCSKUZjfk6ihANfYz-29">
          <mxGeometry y="88" width="160" height="72" as="geometry" />
        </mxCell>
        <mxCell id="2VStCSKUZjfk6ihANfYz-33" value="Turn" style="swimlane;fontStyle=1;align=center;verticalAlign=top;childLayout=stackLayout;horizontal=1;startSize=26;horizontalStack=0;resizeParent=1;resizeParentMax=0;resizeLast=0;collapsible=1;marginBottom=0;whiteSpace=wrap;html=1;" vertex="1" parent="WIyWlLk6GJQsqaUBKTNV-1">
          <mxGeometry x="640" y="240" width="160" height="130" as="geometry" />
        </mxCell>
        <mxCell id="2VStCSKUZjfk6ihANfYz-34" value="- trips: List&amp;lt;Trip&amp;gt;" style="text;strokeColor=none;fillColor=none;align=left;verticalAlign=top;spacingLeft=4;spacingRight=4;overflow=hidden;rotatable=0;points=[[0,0.5],[1,0.5]];portConstraint=eastwest;whiteSpace=wrap;html=1;" vertex="1" parent="2VStCSKUZjfk6ihANfYz-33">
          <mxGeometry y="26" width="160" height="26" as="geometry" />
        </mxCell>
        <mxCell id="2VStCSKUZjfk6ihANfYz-35" value="" style="line;strokeWidth=1;fillColor=none;align=left;verticalAlign=middle;spacingTop=-1;spacingLeft=3;spacingRight=3;rotatable=0;labelPosition=right;points=[];portConstraint=eastwest;strokeColor=inherit;" vertex="1" parent="2VStCSKUZjfk6ihANfYz-33">
          <mxGeometry y="52" width="160" height="8" as="geometry" />
        </mxCell>
        <mxCell id="2VStCSKUZjfk6ihANfYz-36" value="&lt;div&gt;+ Turn()&lt;/div&gt;&lt;div&gt;+ addTrip(Trip): boolean&lt;/div&gt;&lt;div&gt;+ getTrips(): List&amp;lt;Trip&amp;gt;&lt;br&gt;&lt;/div&gt;" style="text;strokeColor=none;fillColor=none;align=left;verticalAlign=top;spacingLeft=4;spacingRight=4;overflow=hidden;rotatable=0;points=[[0,0.5],[1,0.5]];portConstraint=eastwest;whiteSpace=wrap;html=1;" vertex="1" parent="2VStCSKUZjfk6ihANfYz-33">
          <mxGeometry y="60" width="160" height="70" as="geometry" />
        </mxCell>
      </root>
    </mxGraphModel>
  </diagram>
</mxfile>
